<svg xmlns="http://www.w3.org/2000/svg" xmlns:xlink="http://www.w3.org/1999/xlink" width="1640" zoomAndPan="magnify" viewBox="0 0 1230 693.000001" height="924" preserveAspectRatio="xMidYMid meet" version="1.0"><defs><g/></defs><path stroke-linecap="butt" transform="matrix(1.152445, 0, 0, 1.152445, 215.68148, 234.963234)" fill="none" stroke-linejoin="miter" d="M 33.792091 29.856406 L 33.792091 96.999671 L 86.848456 96.999671 L 86.848456 89.468128 L 42.743848 89.468128 L 42.743848 66.612505 L 83.499597 66.612505 L 83.499597 59.196206 L 42.743848 59.196206 L 42.743848 37.387949 L 86.848456 37.387949 L 86.848456 29.856406 Z M 119.401533 93.721992 C 125.184077 96.481072 132.010597 97.860612 139.884483 97.860612 C 145.850061 97.860612 151.276704 97.070851 156.157632 95.487939 C 161.04195 93.891469 165.204296 91.606923 168.644673 88.630913 L 164.831448 81.563736 C 161.140246 84.431281 157.360916 86.515844 153.48329 87.817425 C 149.626001 89.119006 145.216219 89.769796 140.257331 89.769796 C 130.986958 89.769796 123.794368 87.515756 118.679563 83.004288 C 113.581705 78.492819 111.032775 71.984915 111.032775 63.473797 C 111.032775 55.02708 113.595263 48.525955 118.727016 43.967033 C 123.872328 39.394552 131.04797 37.110007 140.257331 37.110007 C 145.216219 37.110007 149.626001 37.760797 153.48329 39.062378 C 157.360916 40.363959 161.140246 42.441743 164.831448 45.29234 L 168.644673 38.24889 C 165.204296 35.194921 161.04195 32.893428 156.157632 31.344411 C 151.276704 29.778446 145.883957 28.995464 139.976 28.995464 C 132.102114 28.995464 125.275594 30.381783 119.493051 33.157811 C 113.713896 35.916891 109.249881 39.869087 106.101005 45.014399 C 102.972465 50.146152 101.406501 56.298155 101.406501 63.473797 C 101.406501 70.588427 102.955518 76.720093 106.056941 81.865404 C 109.171922 87.010716 113.618989 90.962912 119.401533 93.721992 Z M 204.61101 95.487939 C 209.325851 97.070851 214.627081 97.860612 220.514701 97.860612 C 226.358256 97.860612 231.62898 97.070851 236.323484 95.487939 C 241.021377 93.891469 245.034584 91.589975 248.369885 88.583459 C 251.715354 85.559996 254.274452 81.943364 256.040399 77.726784 C 257.823293 73.493257 258.714741 68.714015 258.714741 63.382279 C 258.714741 58.111555 257.823293 53.35265 256.040399 49.105565 C 254.274452 44.844922 251.715354 41.238459 248.369885 38.296344 C 245.034584 35.333892 241.021377 33.049346 236.323484 31.435928 C 231.62898 29.808952 226.358256 28.995464 220.514701 28.995464 C 214.688093 28.995464 209.400421 29.792005 204.658464 31.388475 C 199.930065 32.971387 195.903299 35.27288 192.567999 38.296344 C 189.236087 41.30286 186.680379 44.936439 184.897485 49.200472 C 183.131538 53.447557 182.24687 58.203073 182.24687 63.473797 C 182.24687 68.805533 183.131538 73.588164 184.897485 77.818302 C 186.680379 82.034881 189.236087 85.637955 192.567999 88.630913 C 195.903299 91.606923 199.916507 93.891469 204.61101 95.487939 Z M 235.791327 86.817513 C 231.513736 88.908855 226.419268 89.95622 220.514701 89.95622 C 214.549122 89.95622 209.400421 88.908855 205.078766 86.817513 C 200.76728 84.722781 197.465874 81.709486 195.17455 77.774238 C 192.893394 73.8356 191.754511 69.069916 191.754511 63.473797 C 191.754511 57.894625 192.910341 53.118773 195.218614 49.153019 C 197.543833 45.183875 200.831681 42.153633 205.078766 40.06229 C 209.339409 37.954001 214.484721 36.899856 220.514701 36.899856 C 226.483669 36.899856 231.605253 37.937053 235.882844 40.014837 C 240.177383 42.075673 243.461841 45.092358 245.739607 49.058112 C 248.034321 53.027255 249.183373 57.799718 249.183373 63.382279 C 249.183373 68.975009 248.020763 73.757641 245.695543 77.726784 C 243.383882 81.692538 240.082476 84.722781 235.791327 86.817513 Z M 277.835098 29.856406 L 277.835098 96.999671 L 286.505524 96.999671 L 286.505524 43.363696 L 315.452138 86.515844 L 321.448223 86.515844 L 350.208413 43.228115 L 350.208413 96.999671 L 358.882228 96.999671 L 358.882228 29.856406 L 349.744046 29.856406 L 318.404422 77.194628 L 286.993617 29.856406 Z M 381.341276 29.856406 L 381.341276 96.999671 L 434.39764 96.999671 L 434.39764 89.468128 L 390.293033 89.468128 L 390.293033 66.612505 L 431.048781 66.612505 L 431.048781 59.196206 L 390.293033 59.196206 L 390.293033 37.387949 L 434.39764 37.387949 L 434.39764 29.856406 Z M 472.760378 37.574373 L 472.760378 96.999671 L 481.89856 96.999671 L 481.89856 37.574373 L 512.563667 37.574373 L 512.563667 29.856406 L 442.09527 29.856406 L 442.09527 37.574373 Z M 524.643964 29.856406 L 524.643964 96.999671 L 533.782146 96.999671 L 533.782146 69.378364 L 551.404329 69.378364 C 554.193915 69.378364 556.48185 69.574957 558.264745 69.961364 C 560.047639 70.334212 561.535644 71.015508 562.72876 72.005252 C 563.935434 72.984827 565.145497 74.330472 566.35556 76.052355 L 580.442461 96.999671 L 590.83477 96.999671 L 575.886928 75.28632 C 574.104034 72.805182 572.199116 70.968055 570.168785 69.774939 C 568.718065 68.910608 567.121595 68.324219 565.375985 68.015771 C 568.619769 67.58869 571.504262 66.856551 574.026074 65.822743 C 577.808793 64.256779 580.700065 62.046803 582.69989 59.196206 C 584.699715 56.345608 585.699627 52.91879 585.699627 48.919141 C 585.699627 42.689179 583.398134 37.954001 578.791758 34.713607 C 574.188772 31.476603 567.541897 29.856406 558.844355 29.856406 Z M 558.169838 62.243396 L 533.782146 62.243396 L 533.782146 37.296431 L 557.983413 37.296431 C 564.464201 37.296431 569.175652 38.262448 572.121157 40.201261 C 575.080219 42.140074 576.561445 45.261835 576.561445 49.569931 C 576.561445 53.833964 575.097167 57.009957 572.16861 59.104688 C 569.253611 61.19603 564.586224 62.243396 558.169838 62.243396 Z M 625.391062 66.239656 L 625.391062 96.999671 L 634.529243 96.999671 L 634.529243 66.473534 L 666.333234 29.856406 L 656.056169 29.856406 L 630.207588 59.233491 L 604.535263 29.856406 L 593.678588 29.856406 Z M 704.231606 29.856406 L 706.811041 78.425028 L 712.715608 78.425028 L 715.179798 29.856406 Z M 704.231606 86.32942 L 704.231606 96.999671 L 715.274705 96.999671 L 715.274705 86.32942 Z M 704.231606 86.32942 " stroke="#ffffff" stroke-width="5.475944" stroke-opacity="1" stroke-miterlimit="4"/><g fill="#6610f2" fill-opacity="1"><g transform="translate(241.791558, 346.75038)"><g><path d="M 12.84375 0 L 12.84375 -77.375 L 73.96875 -77.375 L 73.96875 -68.703125 L 23.15625 -68.703125 L 23.15625 -43.578125 L 70.125 -43.578125 L 70.125 -35.015625 L 23.15625 -35.015625 L 23.15625 -8.671875 L 73.96875 -8.671875 L 73.96875 0 Z M 12.84375 0 "/></g></g></g><g fill="#6610f2" fill-opacity="1"><g transform="translate(323.543568, 346.75038)"><g><path d="M 53.34375 0.984375 C 44.269531 0.984375 36.398438 -0.601562 29.734375 -3.78125 C 23.078125 -6.96875 17.957031 -11.523438 14.375 -17.453125 C 10.789062 -23.378906 9 -30.4375 9 -38.625 C 9 -46.894531 10.804688 -53.992188 14.421875 -59.921875 C 18.046875 -65.847656 23.1875 -70.398438 29.84375 -73.578125 C 36.507812 -76.765625 44.378906 -78.359375 53.453125 -78.359375 C 60.253906 -78.359375 66.472656 -77.460938 72.109375 -75.671875 C 77.742188 -73.878906 82.535156 -71.226562 86.484375 -67.71875 L 82.09375 -59.59375 C 77.851562 -62.882812 73.5 -65.28125 69.03125 -66.78125 C 64.570312 -68.28125 59.488281 -69.03125 53.78125 -69.03125 C 43.164062 -69.03125 34.894531 -66.394531 28.96875 -61.125 C 23.039062 -55.863281 20.078125 -48.363281 20.078125 -38.625 C 20.078125 -28.820312 23.019531 -21.320312 28.90625 -16.125 C 34.800781 -10.9375 43.09375 -8.34375 53.78125 -8.34375 C 59.488281 -8.34375 64.570312 -9.09375 69.03125 -10.59375 C 73.5 -12.09375 77.851562 -14.488281 82.09375 -17.78125 L 86.484375 -9.65625 C 82.535156 -6.21875 77.742188 -3.582031 72.109375 -1.75 C 66.472656 0.0703125 60.21875 0.984375 53.34375 0.984375 Z M 53.34375 0.984375 "/></g></g></g><g fill="#6610f2" fill-opacity="1"><g transform="translate(416.70794, 346.75038)"><g><path d="M 53.125 0.984375 C 46.3125 0.984375 40.195312 0.0703125 34.78125 -1.75 C 29.375 -3.582031 24.75 -6.21875 20.90625 -9.65625 C 17.0625 -13.09375 14.113281 -17.242188 12.0625 -22.109375 C 10.019531 -26.972656 9 -32.476562 9 -38.625 C 9 -44.695312 10.019531 -50.1875 12.0625 -55.09375 C 14.113281 -60 17.0625 -64.1875 20.90625 -67.65625 C 24.75 -71.132812 29.394531 -73.785156 34.84375 -75.609375 C 40.289062 -77.441406 46.382812 -78.359375 53.125 -78.359375 C 59.851562 -78.359375 65.921875 -77.425781 71.328125 -75.5625 C 76.742188 -73.695312 81.375 -71.0625 85.21875 -67.65625 C 89.0625 -64.257812 92.003906 -60.109375 94.046875 -55.203125 C 96.097656 -50.296875 97.125 -44.804688 97.125 -38.734375 C 97.125 -32.585938 96.097656 -27.082031 94.046875 -22.21875 C 92.003906 -17.351562 89.0625 -13.179688 85.21875 -9.703125 C 81.375 -6.234375 76.742188 -3.582031 71.328125 -1.75 C 65.921875 0.0703125 59.851562 0.984375 53.125 0.984375 Z M 53.125 -8.125 C 59.925781 -8.125 65.796875 -9.328125 70.734375 -11.734375 C 75.671875 -14.148438 79.472656 -17.644531 82.140625 -22.21875 C 84.816406 -26.789062 86.15625 -32.296875 86.15625 -38.734375 C 86.15625 -45.179688 84.835938 -50.691406 82.203125 -55.265625 C 79.566406 -59.835938 75.78125 -63.3125 70.84375 -65.6875 C 65.90625 -68.0625 60 -69.25 53.125 -69.25 C 46.164062 -69.25 40.234375 -68.039062 35.328125 -65.625 C 30.429688 -63.21875 26.644531 -59.726562 23.96875 -55.15625 C 21.300781 -50.582031 19.96875 -45.070312 19.96875 -38.625 C 19.96875 -32.1875 21.285156 -26.695312 23.921875 -22.15625 C 26.554688 -17.625 30.359375 -14.148438 35.328125 -11.734375 C 40.304688 -9.328125 46.238281 -8.125 53.125 -8.125 Z M 53.125 -8.125 "/></g></g></g><g fill="#6610f2" fill-opacity="1"><g transform="translate(522.820962, 346.75038)"><g><path d="M 13.0625 0 L 13.0625 -77.375 L 23.59375 -77.375 L 61.125 -20.859375 L 58.5 -20.859375 L 95.921875 -77.375 L 106.453125 -77.375 L 106.453125 0 L 96.46875 0 L 96.46875 -63.984375 L 97.78125 -63.984375 L 63.328125 -12.078125 L 56.40625 -12.078125 L 21.515625 -64.09375 L 23.046875 -64.09375 L 23.046875 0 Z M 13.0625 0 "/></g></g></g><g fill="#6610f2" fill-opacity="1"><g transform="translate(642.321553, 346.75038)"><g><path d="M 12.84375 0 L 12.84375 -77.375 L 73.96875 -77.375 L 73.96875 -68.703125 L 23.15625 -68.703125 L 23.15625 -43.578125 L 70.125 -43.578125 L 70.125 -35.015625 L 23.15625 -35.015625 L 23.15625 -8.671875 L 73.96875 -8.671875 L 73.96875 0 Z M 12.84375 0 "/></g></g></g><g fill="#6610f2" fill-opacity="1"><g transform="translate(724.073564, 346.75038)"><g><path d="M 36.4375 0 L 36.4375 -68.484375 L 1.09375 -68.484375 L 1.09375 -77.375 L 82.3125 -77.375 L 82.3125 -68.484375 L 46.96875 -68.484375 L 46.96875 0 Z M 36.4375 0 "/></g></g></g><g fill="#6610f2" fill-opacity="1"><g transform="translate(807.471591, 346.75038)"><g><path d="M 12.84375 0 L 12.84375 -77.375 L 52.234375 -77.375 C 62.265625 -77.375 69.929688 -75.503906 75.234375 -71.765625 C 80.535156 -68.035156 83.1875 -62.585938 83.1875 -55.421875 C 83.1875 -50.816406 82.035156 -46.863281 79.734375 -43.5625 C 77.429688 -40.269531 74.101562 -37.726562 69.75 -35.9375 C 65.394531 -34.144531 60.109375 -33.140625 53.890625 -32.921875 L 54.984375 -33.796875 L 57.296875 -33.6875 C 60.296875 -33.539062 62.960938 -32.769531 65.296875 -31.375 C 67.640625 -29.988281 69.835938 -27.867188 71.890625 -25.015625 L 89.109375 0 L 77.15625 0 L 60.90625 -24.140625 C 59.519531 -26.117188 58.128906 -27.675781 56.734375 -28.8125 C 55.347656 -29.945312 53.628906 -30.734375 51.578125 -31.171875 C 49.535156 -31.609375 46.90625 -31.828125 43.6875 -31.828125 L 23.375 -31.828125 L 23.375 0 Z M 23.375 -40.0625 L 51.46875 -40.0625 C 58.863281 -40.0625 64.242188 -41.265625 67.609375 -43.671875 C 70.972656 -46.085938 72.65625 -49.75 72.65625 -54.65625 C 72.65625 -59.632812 70.953125 -63.238281 67.546875 -65.46875 C 64.148438 -67.695312 58.71875 -68.8125 51.25 -68.8125 L 23.375 -68.8125 Z M 23.375 -40.0625 "/></g></g></g><g fill="#6610f2" fill-opacity="1"><g transform="translate(900.855423, 346.75038)"><g><path d="M 35.5625 0 L 35.5625 -39.296875 L 37.75 -32.921875 L -0.984375 -77.375 L 11.53125 -77.375 L 41.921875 -42.578125 L 40.28125 -42.578125 L 70.90625 -77.375 L 82.75 -77.375 L 44.125 -32.921875 L 46.09375 -39.296875 L 46.09375 0 Z M 35.5625 0 "/></g></g></g><g fill="#6610f2" fill-opacity="1"><g transform="translate(982.607468, 346.75038)"><g/></g></g><g fill="#6610f2" fill-opacity="1"><g transform="translate(1018.051616, 346.75038)"><g><path d="M 12.1875 -21.40625 L 9.21875 -77.375 L 21.84375 -77.375 L 18.984375 -21.40625 Z M 9.21875 0 L 9.21875 -12.296875 L 21.953125 -12.296875 L 21.953125 0 Z M 9.21875 0 "/></g></g></g></svg>