<svg xmlns="http://www.w3.org/2000/svg" xmlns:xlink="http://www.w3.org/1999/xlink" width="500" zoomAndPan="magnify" viewBox="0 0 375 74.999997" height="100" preserveAspectRatio="xMidYMid meet" version="1.0"><defs><g/></defs><path stroke-linecap="butt" transform="matrix(0.625012, 0, 0, 0.625012, -19.831386, 2.4999)" fill="none" stroke-linejoin="miter" d="M 46.748047 24.593426 L 46.748047 80.998564 L 91.315918 80.998564 L 91.315918 74.673689 L 54.266649 74.673689 L 54.266649 55.474067 L 88.503474 55.474067 L 88.503474 49.24294 L 54.266649 49.24294 L 54.266649 30.924551 L 91.315918 30.924551 L 91.315918 24.593426 Z M 118.671629 78.248618 C 123.527784 80.561073 129.265171 81.72355 135.87754 81.72355 C 140.889941 81.72355 145.446102 81.061063 149.552271 79.729839 C 153.65219 78.392366 157.145871 76.467403 160.039564 73.967453 L 156.833377 68.03007 C 153.733438 70.442522 150.558501 72.192488 147.302315 73.286216 C 144.058629 74.379945 140.358702 74.923684 136.190034 74.923684 C 128.402688 74.923684 122.359057 73.029971 118.065391 69.242546 C 113.777976 65.45512 111.640518 59.986478 111.640518 52.836619 C 111.640518 45.736759 113.796725 40.274367 118.102891 36.449442 C 122.427805 32.605768 128.452687 30.687056 136.190034 30.687056 C 140.358702 30.687056 144.058629 31.237045 147.302315 32.330773 C 150.558501 33.424502 153.733438 35.168217 156.833377 37.56192 L 160.039564 31.643287 C 157.145871 29.080837 153.65219 27.143375 149.552271 25.843401 C 145.446102 24.530927 140.914941 23.86844 135.952539 23.86844 C 129.340169 23.86844 123.602782 25.037167 118.746628 27.368371 C 113.890474 29.687075 110.140547 33.00576 107.49685 37.330675 C 104.865651 41.63684 103.553177 46.805488 103.553177 52.836619 C 103.553177 58.811501 104.853152 63.9614 107.45935 68.286315 C 110.078049 72.60498 113.815475 75.929914 118.671629 78.248618 Z M 190.263968 79.729839 C 194.22014 81.061063 198.676303 81.72355 203.619955 81.72355 C 208.532358 81.72355 212.957271 81.061063 216.900943 79.729839 C 220.850866 78.392366 224.219549 76.454904 227.019494 73.929953 C 229.831939 71.392503 231.981896 68.348813 233.463117 64.811383 C 234.963088 61.255203 235.713073 57.236532 235.713073 52.755371 C 235.713073 48.330458 234.963088 44.330537 233.463117 40.768107 C 231.981896 37.186928 229.831939 34.155737 227.019494 31.680786 C 224.219549 29.199585 220.850866 27.274623 216.900943 25.924649 C 212.957271 24.555926 208.532358 23.86844 203.619955 23.86844 C 198.726302 23.86844 194.282639 24.543427 190.301468 25.8809 C 186.332796 27.212124 182.945363 29.143336 180.145418 31.680786 C 177.345473 34.211986 175.195515 37.261926 173.701795 40.843105 C 172.214324 44.411785 171.470589 48.411706 171.470589 52.836619 C 171.470589 57.317781 172.214324 61.330202 173.701795 64.886382 C 175.195515 68.430062 177.345473 71.455002 180.145418 73.967453 C 182.945363 76.467403 186.314046 78.392366 190.263968 79.729839 Z M 216.450952 72.442483 C 212.857273 74.204948 208.582357 75.079931 203.619955 75.079931 C 198.607554 75.079931 194.282639 74.204948 190.651461 72.442483 C 187.032782 70.686267 184.257837 68.155067 182.332875 64.848882 C 180.420412 61.542698 179.464181 57.536527 179.464181 52.836619 C 179.464181 48.149212 180.432912 44.136791 182.370374 40.805606 C 184.326585 37.474422 187.082781 34.924472 190.651461 33.168257 C 194.23264 31.399542 198.557555 30.512059 203.619955 30.512059 C 208.632356 30.512059 212.938522 31.387042 216.532201 33.130757 C 220.13838 34.861973 222.900825 37.393173 224.813288 40.724358 C 226.73825 44.061792 227.700731 48.067963 227.700731 52.755371 C 227.700731 57.455278 226.72575 61.473949 224.775788 64.811383 C 222.832077 68.142567 220.057131 70.686267 216.450952 72.442483 Z M 251.781506 24.593426 L 251.781506 80.998564 L 259.068862 80.998564 L 259.068862 35.943202 L 283.380883 72.192488 L 288.424534 72.192488 L 312.580308 35.830704 L 312.580308 80.998564 L 319.867664 80.998564 L 319.867664 24.593426 L 312.192816 24.593426 L 285.862084 64.361392 L 259.475104 24.593426 Z M 338.748542 24.593426 L 338.748542 80.998564 L 383.316414 80.998564 L 383.316414 74.673689 L 346.267144 74.673689 L 346.267144 55.474067 L 380.503969 55.474067 L 380.503969 49.24294 L 346.267144 49.24294 L 346.267144 30.924551 L 383.316414 30.924551 L 383.316414 24.593426 Z M 415.553279 31.080798 L 415.553279 80.998564 L 423.228127 80.998564 L 423.228127 31.080798 L 448.99012 31.080798 L 448.99012 24.593426 L 389.791286 24.593426 L 389.791286 31.080798 Z M 459.14617 24.593426 L 459.14617 80.998564 L 466.821018 80.998564 L 466.821018 57.799021 L 481.626976 57.799021 C 483.97068 57.799021 485.889392 57.961518 487.389363 58.286512 C 488.883084 58.599006 490.133059 59.167744 491.139289 60.005228 C 492.151769 60.823962 493.170499 61.955189 494.182979 63.405161 L 506.020246 80.998564 L 514.751324 80.998564 L 502.195321 62.755174 C 500.695351 60.673965 499.095382 59.130245 497.389166 58.130265 C 496.17044 57.405279 494.826716 56.911539 493.364245 56.649044 C 496.089191 56.292801 498.507894 55.680313 500.632852 54.81158 C 503.807789 53.492856 506.232742 51.636643 507.913958 49.24294 C 509.595175 46.849237 510.432659 43.968044 510.432659 40.61186 C 510.432659 35.374463 508.501447 31.399542 504.632773 28.674595 C 500.764099 25.955899 495.182959 24.593426 487.876853 24.593426 Z M 487.308115 51.79914 L 466.821018 51.79914 L 466.821018 30.843303 L 487.151868 30.843303 C 492.59551 30.843303 496.551682 31.655787 499.026634 33.287004 C 501.514085 34.911972 502.75781 37.536921 502.75781 41.155599 C 502.75781 44.736779 501.526584 47.405476 499.070383 49.161692 C 496.620431 50.924157 492.701758 51.79914 487.308115 51.79914 Z M 543.788251 55.161573 L 543.788251 80.998564 L 551.4631 80.998564 L 551.4631 55.355319 L 578.181324 24.593426 L 569.550244 24.593426 L 547.831922 49.274189 L 526.269847 24.593426 L 517.145027 24.593426 Z M 610.030696 24.593426 L 612.199403 65.392622 L 617.155556 65.392622 L 619.230515 24.593426 Z M 610.030696 72.036241 L 610.030696 80.998564 L 619.305513 80.998564 L 619.305513 72.036241 Z M 610.030696 72.036241 " stroke="#ffffff" stroke-width="4.6" stroke-opacity="1" stroke-miterlimit="4"/><g fill="#6610f2" fill-opacity="1"><g transform="translate(3.538215, 53.125897)"><g><path d="M 5.84375 0 L 5.84375 -35.25 L 33.703125 -35.25 L 33.703125 -31.296875 L 10.546875 -31.296875 L 10.546875 -19.84375 L 31.953125 -19.84375 L 31.953125 -15.953125 L 10.546875 -15.953125 L 10.546875 -3.953125 L 33.703125 -3.953125 L 33.703125 0 Z M 5.84375 0 "/></g></g></g><g fill="#6610f2" fill-opacity="1"><g transform="translate(40.788915, 53.125897)"><g><path d="M 24.296875 0.453125 C 20.160156 0.453125 16.578125 -0.269531 13.546875 -1.71875 C 10.515625 -3.175781 8.179688 -5.253906 6.546875 -7.953125 C 4.910156 -10.648438 4.09375 -13.863281 4.09375 -17.59375 C 4.09375 -21.363281 4.914062 -24.597656 6.5625 -27.296875 C 8.21875 -29.992188 10.5625 -32.066406 13.59375 -33.515625 C 16.632812 -34.972656 20.21875 -35.703125 24.34375 -35.703125 C 27.445312 -35.703125 30.28125 -35.289062 32.84375 -34.46875 C 35.414062 -33.65625 37.601562 -32.445312 39.40625 -30.84375 L 37.40625 -27.15625 C 35.46875 -28.65625 33.484375 -29.742188 31.453125 -30.421875 C 29.421875 -31.109375 27.101562 -31.453125 24.5 -31.453125 C 19.664062 -31.453125 15.898438 -30.25 13.203125 -27.84375 C 10.503906 -25.445312 9.15625 -22.03125 9.15625 -17.59375 C 9.15625 -13.132812 10.492188 -9.71875 13.171875 -7.34375 C 15.859375 -4.976562 19.632812 -3.796875 24.5 -3.796875 C 27.101562 -3.796875 29.421875 -4.132812 31.453125 -4.8125 C 33.484375 -5.5 35.46875 -6.59375 37.40625 -8.09375 L 39.40625 -4.40625 C 37.601562 -2.832031 35.414062 -1.628906 32.84375 -0.796875 C 30.28125 0.0351562 27.429688 0.453125 24.296875 0.453125 Z M 24.296875 0.453125 "/></g></g></g><g fill="#6610f2" fill-opacity="1"><g transform="translate(83.239712, 53.125897)"><g><path d="M 24.203125 0.453125 C 21.097656 0.453125 18.3125 0.0351562 15.84375 -0.796875 C 13.382812 -1.628906 11.28125 -2.828125 9.53125 -4.390625 C 7.78125 -5.960938 6.4375 -7.859375 5.5 -10.078125 C 4.5625 -12.296875 4.09375 -14.800781 4.09375 -17.59375 C 4.09375 -20.363281 4.5625 -22.863281 5.5 -25.09375 C 6.4375 -27.332031 7.78125 -29.242188 9.53125 -30.828125 C 11.28125 -32.410156 13.394531 -33.617188 15.875 -34.453125 C 18.351562 -35.285156 21.128906 -35.703125 24.203125 -35.703125 C 27.265625 -35.703125 30.03125 -35.273438 32.5 -34.421875 C 34.96875 -33.578125 37.078125 -32.378906 38.828125 -30.828125 C 40.578125 -29.273438 41.914062 -27.378906 42.84375 -25.140625 C 43.78125 -22.910156 44.25 -20.414062 44.25 -17.65625 C 44.25 -14.851562 43.78125 -12.34375 42.84375 -10.125 C 41.914062 -7.90625 40.578125 -6.003906 38.828125 -4.421875 C 37.078125 -2.835938 34.96875 -1.628906 32.5 -0.796875 C 30.03125 0.0351562 27.265625 0.453125 24.203125 0.453125 Z M 24.203125 -3.703125 C 27.296875 -3.703125 29.96875 -4.25 32.21875 -5.34375 C 34.46875 -6.445312 36.203125 -8.039062 37.421875 -10.125 C 38.640625 -12.207031 39.25 -14.71875 39.25 -17.65625 C 39.25 -20.582031 38.648438 -23.085938 37.453125 -25.171875 C 36.253906 -27.253906 34.53125 -28.835938 32.28125 -29.921875 C 30.03125 -31.003906 27.335938 -31.546875 24.203125 -31.546875 C 21.035156 -31.546875 18.332031 -30.992188 16.09375 -29.890625 C 13.863281 -28.796875 12.140625 -27.207031 10.921875 -25.125 C 9.703125 -23.039062 9.09375 -20.53125 9.09375 -17.59375 C 9.09375 -14.664062 9.691406 -12.164062 10.890625 -10.09375 C 12.097656 -8.03125 13.832031 -6.445312 16.09375 -5.34375 C 18.363281 -4.25 21.066406 -3.703125 24.203125 -3.703125 Z M 24.203125 -3.703125 "/></g></g></g><g fill="#6610f2" fill-opacity="1"><g transform="translate(131.590617, 53.125897)"><g><path d="M 5.953125 0 L 5.953125 -35.25 L 10.75 -35.25 L 27.84375 -9.5 L 26.65625 -9.5 L 43.703125 -35.25 L 48.5 -35.25 L 48.5 0 L 43.953125 0 L 43.953125 -29.15625 L 44.546875 -29.15625 L 28.84375 -5.5 L 25.703125 -5.5 L 9.796875 -29.203125 L 10.5 -29.203125 L 10.5 0 Z M 5.953125 0 "/></g></g></g><g fill="#6610f2" fill-opacity="1"><g transform="translate(186.04164, 53.125897)"><g><path d="M 5.84375 0 L 5.84375 -35.25 L 33.703125 -35.25 L 33.703125 -31.296875 L 10.546875 -31.296875 L 10.546875 -19.84375 L 31.953125 -19.84375 L 31.953125 -15.953125 L 10.546875 -15.953125 L 10.546875 -3.953125 L 33.703125 -3.953125 L 33.703125 0 Z M 5.84375 0 "/></g></g></g><g fill="#6610f2" fill-opacity="1"><g transform="translate(223.292339, 53.125897)"><g><path d="M 16.59375 0 L 16.59375 -31.203125 L 0.5 -31.203125 L 0.5 -35.25 L 37.5 -35.25 L 37.5 -31.203125 L 21.40625 -31.203125 L 21.40625 0 Z M 16.59375 0 "/></g></g></g><g fill="#6610f2" fill-opacity="1"><g transform="translate(261.293043, 53.125897)"><g><path d="M 5.84375 0 L 5.84375 -35.25 L 23.796875 -35.25 C 28.367188 -35.25 31.863281 -34.398438 34.28125 -32.703125 C 36.695312 -31.003906 37.90625 -28.519531 37.90625 -25.25 C 37.90625 -23.144531 37.378906 -21.34375 36.328125 -19.84375 C 35.273438 -18.34375 33.753906 -17.1875 31.765625 -16.375 C 29.785156 -15.5625 27.378906 -15.101562 24.546875 -15 L 25.046875 -15.40625 L 26.09375 -15.34375 C 27.46875 -15.28125 28.6875 -14.929688 29.75 -14.296875 C 30.8125 -13.660156 31.8125 -12.695312 32.75 -11.40625 L 40.59375 0 L 35.15625 0 L 27.75 -11 C 27.113281 -11.894531 26.476562 -12.601562 25.84375 -13.125 C 25.21875 -13.644531 24.4375 -14.003906 23.5 -14.203125 C 22.5625 -14.398438 21.363281 -14.5 19.90625 -14.5 L 10.65625 -14.5 L 10.65625 0 Z M 10.65625 -18.25 L 23.453125 -18.25 C 26.816406 -18.25 29.265625 -18.796875 30.796875 -19.890625 C 32.328125 -20.992188 33.09375 -22.664062 33.09375 -24.90625 C 33.09375 -27.164062 32.316406 -28.800781 30.765625 -29.8125 C 29.222656 -30.832031 26.75 -31.34375 23.34375 -31.34375 L 10.65625 -31.34375 Z M 10.65625 -18.25 "/></g></g></g><g fill="#6610f2" fill-opacity="1"><g transform="translate(303.843854, 53.125897)"><g><path d="M 16.203125 0 L 16.203125 -17.90625 L 17.203125 -15 L -0.453125 -35.25 L 5.25 -35.25 L 19.09375 -19.40625 L 18.34375 -19.40625 L 32.296875 -35.25 L 37.703125 -35.25 L 20.09375 -15 L 21 -17.90625 L 21 0 Z M 16.203125 0 "/></g></g></g><g fill="#6610f2" fill-opacity="1"><g transform="translate(341.094535, 53.125897)"><g/></g></g><g fill="#6610f2" fill-opacity="1"><g transform="translate(357.244832, 53.125897)"><g><path d="M 5.546875 -9.75 L 4.203125 -35.25 L 9.953125 -35.25 L 8.65625 -9.75 Z M 4.203125 0 L 4.203125 -5.59375 L 10 -5.59375 L 10 0 Z M 4.203125 0 "/></g></g></g></svg>